<svg width="955" height="192" viewBox="0 0 955 192" fill="none" xmlns="http://www.w3.org/2000/svg">
<rect width="112" height="112" rx="50" fill="#046C4E" fill-opacity="0.8"/>
<rect x="81" width="112" height="112" rx="50" fill="#03543F" fill-opacity="0.8"/>
<rect x="81" y="80" width="112" height="112" rx="50" fill="#046C4E" fill-opacity="0.8"/>
<rect y="80" width="112" height="112" rx="50" fill="#03543F" fill-opacity="0.8"/>
<path d="M260.369 146H228.409L264.418 36.9091H304.901L340.909 146H308.949L285.085 66.9517H284.233L260.369 146ZM254.403 102.96H314.489V125.119H254.403V102.96ZM359.486 176.682C356.112 176.682 352.899 176.415 349.845 175.883C346.791 175.386 344.11 174.693 341.801 173.805L348.193 152.925C350.608 153.777 352.81 154.327 354.798 154.576C356.823 154.825 358.545 154.683 359.965 154.15C361.421 153.617 362.469 152.605 363.108 151.114L363.747 149.622L334.983 64.1818H365.665L378.875 120.858H379.727L393.151 64.1818H424.046L394.216 152.818C392.725 157.328 390.558 161.376 387.718 164.963C384.912 168.585 381.219 171.444 376.638 173.539C372.057 175.634 366.34 176.682 359.486 176.682ZM485.463 110.205V64.1818H514.866V146H486.954V130.446H486.102C484.326 135.666 481.219 139.75 476.78 142.697C472.341 145.609 467.068 147.065 460.96 147.065C455.242 147.065 450.235 145.751 445.938 143.124C441.677 140.496 438.357 136.874 435.977 132.257C433.634 127.641 432.444 122.349 432.409 116.384V64.1818H461.812V110.205C461.847 114.253 462.877 117.431 464.901 119.739C466.961 122.048 469.838 123.202 473.531 123.202C475.981 123.202 478.094 122.687 479.869 121.657C481.681 120.592 483.066 119.1 484.024 117.183C485.019 115.229 485.498 112.903 485.463 110.205ZM604.608 90.8153H577.548C577.406 89.1463 576.82 87.7081 575.79 86.5007C574.76 85.2933 573.429 84.37 571.795 83.7308C570.197 83.0561 568.422 82.7188 566.468 82.7188C563.947 82.7188 561.781 83.1804 559.97 84.1037C558.159 85.027 557.271 86.3409 557.306 88.0455C557.271 89.2528 557.786 90.3714 558.851 91.4013C559.952 92.4311 562.065 93.2301 565.19 93.7983L581.809 96.7812C590.19 98.3082 596.422 100.883 600.506 104.505C604.625 108.092 606.703 112.903 606.738 118.94C606.703 124.764 604.963 129.825 601.518 134.121C598.109 138.383 593.439 141.685 587.509 144.029C581.614 146.337 574.885 147.491 567.321 147.491C554.821 147.491 545.037 144.935 537.971 139.821C530.939 134.707 527.015 127.96 526.199 119.58H555.389C555.779 122.172 557.058 124.178 559.224 125.599C561.426 126.984 564.196 127.676 567.534 127.676C570.233 127.676 572.452 127.214 574.192 126.291C575.968 125.368 576.873 124.054 576.909 122.349C576.873 120.787 576.092 119.544 574.565 118.621C573.074 117.697 570.73 116.952 567.534 116.384L553.045 113.827C544.7 112.371 538.45 109.601 534.295 105.517C530.14 101.433 528.081 96.1776 528.116 89.75C528.081 84.0682 529.572 79.2564 532.591 75.3146C535.645 71.3374 539.995 68.3189 545.641 66.2592C551.323 64.1641 558.052 63.1165 565.829 63.1165C577.654 63.1165 586.976 65.5668 593.794 70.4673C600.648 75.3679 604.252 82.1506 604.608 90.8153ZM647.408 99.9773V146H618.004V36.9091H646.342V79.7358H647.195C649.041 74.5156 652.113 70.4496 656.41 67.5376C660.707 64.5902 665.874 63.1165 671.911 63.1165C677.699 63.1165 682.724 64.4304 686.985 67.0582C691.282 69.6861 694.602 73.3082 696.946 77.9247C699.325 82.5412 700.497 87.8324 700.462 93.7983V146H671.058V99.9773C671.094 95.929 670.082 92.7507 668.022 90.4425C665.998 88.1342 663.104 86.9801 659.339 86.9801C656.96 86.9801 654.865 87.5128 653.054 88.5781C651.278 89.608 649.893 91.0994 648.899 93.0526C647.94 94.9702 647.443 97.2784 647.408 99.9773ZM714.977 146V64.1818H742.889V79.7358H743.741C745.446 74.6222 748.358 70.5739 752.477 67.5909C756.596 64.608 761.497 63.1165 767.179 63.1165C772.931 63.1165 777.885 64.6435 782.04 67.6974C786.195 70.7159 788.699 74.7287 789.551 79.7358H790.403C791.788 74.7287 794.735 70.7159 799.245 67.6974C803.755 64.6435 809.047 63.1165 815.119 63.1165C822.967 63.1165 829.324 65.6378 834.189 70.6804C839.089 75.723 841.539 82.4347 841.539 90.8153V146H812.136V98.2727C812.136 94.6861 811.23 91.8807 809.419 89.8565C807.608 87.7969 805.176 86.767 802.122 86.767C799.103 86.767 796.706 87.7969 794.931 89.8565C793.191 91.8807 792.321 94.6861 792.321 98.2727V146H764.196V98.2727C764.196 94.6861 763.29 91.8807 761.479 89.8565C759.668 87.7969 757.235 86.767 754.181 86.767C752.157 86.767 750.417 87.2287 748.961 88.152C747.505 89.0753 746.369 90.407 745.552 92.147C744.771 93.8516 744.38 95.8935 744.38 98.2727V146H714.977ZM878.84 147.278C873.619 147.278 869.003 146.426 864.99 144.722C861.013 142.982 857.888 140.354 855.615 136.838C853.343 133.322 852.206 128.848 852.206 123.415C852.206 118.94 852.97 115.123 854.497 111.962C856.024 108.766 858.154 106.156 860.889 104.132C863.623 102.108 866.801 100.563 870.423 99.4979C874.081 98.4325 878.023 97.7401 882.249 97.4205C886.83 97.0653 890.505 96.6392 893.275 96.142C896.08 95.6094 898.105 94.8814 899.347 93.9581C900.59 92.9993 901.212 91.7386 901.212 90.1761V89.9631C901.212 87.8324 900.395 86.1989 898.762 85.0625C897.128 83.9261 895.033 83.358 892.476 83.358C889.671 83.358 887.38 83.9794 885.605 85.2223C883.865 86.4297 882.817 88.294 882.462 90.8153H855.402C855.757 85.8437 857.338 81.2628 860.143 77.0724C862.984 72.8466 867.121 69.473 872.554 66.9517C877.987 64.3949 884.77 63.1165 892.902 63.1165C898.762 63.1165 904.017 63.8089 908.669 65.1939C913.321 66.5433 917.281 68.4432 920.548 70.8935C923.815 73.3082 926.301 76.1491 928.005 79.4162C929.745 82.6477 930.615 86.1634 930.615 89.9631V146H903.129V134.494H902.49C900.857 137.548 898.868 140.016 896.524 141.898C894.216 143.781 891.57 145.148 888.588 146C885.64 146.852 882.391 147.278 878.84 147.278ZM888.428 128.741C890.665 128.741 892.76 128.28 894.713 127.357C896.702 126.433 898.318 125.102 899.561 123.362C900.803 121.621 901.425 119.509 901.425 117.023V110.205C900.644 110.524 899.809 110.826 898.921 111.11C898.069 111.394 897.146 111.661 896.151 111.909C895.193 112.158 894.163 112.388 893.062 112.602C891.997 112.815 890.878 113.01 889.706 113.188C887.433 113.543 885.569 114.129 884.113 114.945C882.693 115.727 881.627 116.703 880.917 117.875C880.242 119.011 879.905 120.29 879.905 121.71C879.905 123.983 880.704 125.723 882.302 126.93C883.9 128.138 885.942 128.741 888.428 128.741Z" fill="#242424"/>
</svg>
