<?xml version="1.0" encoding="UTF-8"?><svg id="a" xmlns="http://www.w3.org/2000/svg" xmlns:xlink="http://www.w3.org/1999/xlink" viewBox="0 0 740 200"><defs><linearGradient id="b" x1="70.05" y1="37.97" x2="129.84" y2="156.55" gradientUnits="userSpaceOnUse"><stop offset="0" stop-color="#ffc688"/><stop offset=".52" stop-color="#ff3e96"/><stop offset="1" stop-color="#93f"/></linearGradient></defs><path d="m125.07,61.44v-.02s58.07,38.58,58.07,38.58l-58.09,38.58v-.02c.41-.25.8-.52,1.18-.82,9.78-7.74,24.05-21.71,24.05-37.72,0,0,0-.02,0-.02s0-.02,0-.02c0-16.01-14.27-29.98-24.05-37.72-.38-.3-.77-.56-1.16-.82Zm-47.49,0v-.02s-58.07,38.58-58.07,38.58l58.09,38.58v-.02c-.41-.25-.8-.52-1.18-.82-9.78-7.74-24.05-21.71-24.05-37.72,0,0,0-.02,0-.02s0-.02,0-.02c0-16.01,14.27-29.98,24.05-37.72.38-.3.77-.56,1.16-.82Zm46.24,38.56c0,4.36-1.25,8.42-3.41,11.84-.03.05-.06.1-.09.15-.01.02-.02.03-.03.05-3.96,6.13-10.86,10.17-18.72,10.17h-.72c-7.92-.27-14.79-4.65-18.51-11.09h.04c-1.97-3.35-2.99-7.23-3-11.12,0-3.89,1.03-7.77,3-11.12h-.04c3.72-6.44,10.59-10.82,18.51-11.09h.72c7.86,0,14.76,4.04,18.72,10.17.01.02.02.03.03.05.03.05.06.1.09.15,2.15,3.43,3.4,7.49,3.41,11.84Zm-11.15,0s0-.01,0-.02c0-6.12-4.92-11.09-11.03-11.09s-11.09,4.98-11.09,11.09c0,0,0,.01,0,.02s0,.01,0,.02c0,6.12,4.98,11.09,11.09,11.09s11.03-4.98,11.03-11.09c0,0,0-.01,0-.02Zm-48.81-9.83c7.74-9.78,21.71-24.05,37.72-24.05,0,0,.02,0,.02,0s.01,0,.02,0c16.01,0,29.98,14.27,37.72,24.05.3.38.56.77.82,1.16h.02s-38.58-58.07-38.58-58.07l-38.58,58.09h.02c.25-.41.52-.8.82-1.18Zm-.82,18.5h-.02s38.58,58.07,38.58,58.07l38.58-58.09h-.02c-.25.41-.52.8-.82,1.18-7.74,9.78-21.71,24.05-37.72,24.05,0,0-.02,0-.02,0s-.02,0-.02,0c-16.01,0-29.98-14.27-37.72-24.05-.3-.38-.56-.77-.82-1.16Z" fill="url(#b)" stroke-width="0"/><path d="m244.29,112.33l-3.47-11.29h-20.93l-3.47,11.29h-13.57l18.18-54.97h18.65l18.22,54.97h-13.61Zm-21.65-20.25h15.43l-7.7-25.28-7.74,25.28Zm69.59-38.77h11.33v59.03h-9.73l-.51-7.95c-2.28,5.58-6.64,8.75-13.53,8.75-11.16,0-18.52-8.58-18.52-21.69s7.36-21.56,18.52-21.56c5.96,0,9.98,2.2,12.43,6.34v-22.92Zm.34,38.14c0-6.89-4.14-11.42-10.27-11.42s-9.64,4.4-9.64,11.42,3.51,11.67,9.64,11.67,10.27-4.69,10.27-11.67Zm58.98-5.75v26.64h-11.33v-23.47c0-5.71-2.07-8.37-6.81-8.37-5.41,0-9.09,3.85-9.09,11.8v20.04h-11.33v-59.03h11.33v24.1c2.28-4.74,6.43-7.53,12.64-7.53,10.19,0,14.59,6.38,14.59,15.81Zm35.52-15.01h12.81l-13.95,42.71c-4.65,14.63-16.28,17.25-28.79,14.16l1.95-9.73c9.26,2.37,14,1.01,15.81-4.44l.34-1.06h-4.86l-13.62-41.65h12.81l6.55,24.86c.76,2.88,1.52,5.96,2.24,8.84.68-2.75,1.4-5.67,2.2-8.75l6.51-24.95Zm58.01,32.18v9.22c-1.86.47-3.55.59-5.67.59-6.22,0-8.58-1.78-9.22-6.64-2.28,4.52-7.31,7.06-14.21,7.06-9.09,0-14.21-5.41-14.21-12.85,0-8.79,8.03-12.05,19.49-12.05,2.75,0,5.29.21,7.7.59v-1.65c0-4.65-1.69-8.03-7.4-8.03-4.61,0-7.02,2.07-7.53,6.47l-10.87-1.27c.68-9.43,7.91-14.42,18.35-14.42,16.24,0,18.52,9.43,18.52,17.38v12.64c0,2.07.55,3.13,2.75,3.13.72,0,1.48-.04,2.28-.17Zm-16.11-2.58v-4.52c-2.03-.38-3.97-.55-6.13-.55-6.05,0-8.84,1.48-8.84,4.61s2.07,4.65,5.83,4.65,7.31-1.56,9.13-4.19Zm46.72-29.6h12.81l-13.95,42.71c-4.65,14.63-16.28,17.25-28.79,14.16l1.95-9.73c9.26,2.37,14,1.01,15.81-4.44l.34-1.06h-4.86l-13.62-41.65h12.81l6.55,24.86c.76,2.88,1.52,5.96,2.24,8.84.68-2.75,1.4-5.67,2.2-8.75l6.51-24.95Zm58.01,32.18v9.22c-1.86.47-3.55.59-5.67.59-6.21,0-8.58-1.78-9.22-6.64-2.28,4.52-7.31,7.06-14.21,7.06-9.09,0-14.21-5.41-14.21-12.85,0-8.79,8.03-12.05,19.49-12.05,2.75,0,5.29.21,7.7.59v-1.65c0-4.65-1.69-8.03-7.4-8.03-4.61,0-7.02,2.07-7.53,6.47l-10.87-1.27c.68-9.43,7.91-14.42,18.35-14.42,16.24,0,18.52,9.43,18.52,17.38v12.64c0,2.07.55,3.13,2.75,3.13.72,0,1.48-.04,2.28-.17Zm-16.11-2.58v-4.52c-2.03-.38-3.97-.55-6.13-.55-6.05,0-8.84,1.48-8.84,4.61s2.07,4.65,5.83,4.65,7.31-1.56,9.13-4.19Zm60.46-14.59v26.64h-11.33v-23.47c0-5.71-2.07-8.37-6.81-8.37-5.41,0-9.09,3.85-9.09,11.8v20.04h-11.33v-41.65h10.06l.08,8.25c2.07-5.67,6.51-9.05,13.49-9.05,10.53,0,14.93,6.38,14.93,15.81Zm50.15,17.17v9.22c-1.86.47-3.55.59-5.67.59-6.21,0-8.58-1.78-9.22-6.64-2.28,4.52-7.31,7.06-14.21,7.06-9.09,0-14.21-5.41-14.21-12.85,0-8.79,8.03-12.05,19.49-12.05,2.75,0,5.29.21,7.7.59v-1.65c0-4.65-1.69-8.03-7.4-8.03-4.61,0-7.02,2.07-7.53,6.47l-10.87-1.27c.68-9.43,7.91-14.42,18.35-14.42,16.24,0,18.52,9.43,18.52,17.38v12.64c0,2.07.55,3.13,2.75,3.13.72,0,1.48-.04,2.28-.17Zm-16.11-2.58v-4.52c-2.03-.38-3.97-.55-6.13-.55-6.05,0-8.84,1.48-8.84,4.61s2.07,4.65,5.83,4.65,7.31-1.56,9.13-4.19Zm75.39,12.05l-3.47-11.29h-20.93l-3.47,11.29h-13.57l18.18-54.97h18.65l18.22,54.97h-13.62Zm-21.65-20.25h15.43l-7.7-25.28-7.74,25.28Zm42.32,20.25v-54.97h12.35v54.97h-12.35Z" fill="#403149" stroke-width="0"/><path d="m512.68,159.66l-1.64-5.34h-9.9l-1.64,5.34h-6.42l8.6-26.01h8.82l8.62,26.01h-6.44Zm-10.24-9.58h7.3l-3.64-11.96-3.66,11.96Z" fill="#4c4451" stroke-width="0"/><path d="m536.16,131.73h5.36v27.93h-4.6l-.24-3.76c-1.08,2.64-3.14,4.14-6.4,4.14-5.28,0-8.76-4.06-8.76-10.26s3.48-10.2,8.76-10.2c2.82,0,4.72,1.04,5.88,3v-10.84Zm.16,18.04c0-3.26-1.96-5.4-4.86-5.4s-4.56,2.08-4.56,5.4,1.66,5.52,4.56,5.52,4.86-2.22,4.86-5.52Z" fill="#4c4451" stroke-width="0"/><path d="m575.9,147.03v12.62h-5.32v-11.2c0-2.64-.8-3.92-2.76-3.92-2.36,0-3.8,1.82-3.8,5.58l-.02-.04v9.58h-5.32v-11.2c0-2.66-.8-3.92-2.76-3.92-2.36,0-3.8,1.82-3.8,5.58v9.54h-5.34v-19.7h4.72l.04,3.6c.92-2.5,2.82-3.98,5.92-3.98,3.26,0,5.14,1.42,5.98,3.76.98-2.36,2.88-3.76,5.88-3.76,4.72,0,6.58,3.06,6.58,7.46Z" fill="#4c4451" stroke-width="0"/><path d="m580.4,134.73c0-1.76,1.52-3.18,3.28-3.18s3.32,1.42,3.32,3.18-1.52,3.2-3.32,3.2-3.28-1.42-3.28-3.2Zm.62,24.93v-19.7h5.36v19.7h-5.36Z" fill="#4c4451" stroke-width="0"/><path d="m609.88,147.05v12.6h-5.36v-11.1c0-2.7-.98-3.96-3.22-3.96-2.56,0-4.3,1.82-4.3,5.58v9.48h-5.36v-19.7h4.76l.04,3.9c.98-2.68,3.08-4.28,6.38-4.28,4.98,0,7.06,3.02,7.06,7.48Z" fill="#4c4451" stroke-width="0"/><path d="m623.78,159.66v-26.03h10.18c5.9,0,9.08,2.9,9.08,8.34s-3.22,8.66-9.14,8.66h-4.3v9.02h-5.82Zm5.82-13.38h3.82c2.68,0,3.86-1.46,3.86-4.12s-1.32-3.84-3.84-3.84h-3.84v7.96Z" fill="#4c4451" stroke-width="0"/><path d="m666.26,155.17v4.36c-.88.22-1.68.28-2.68.28-2.94,0-4.06-.84-4.36-3.14-1.08,2.14-3.46,3.34-6.72,3.34-4.3,0-6.72-2.56-6.72-6.08,0-4.16,3.8-5.7,9.22-5.7,1.3,0,2.5.1,3.64.28v-.78c0-2.2-.8-3.8-3.5-3.8-2.18,0-3.32.98-3.56,3.06l-5.14-.6c.32-4.46,3.74-6.82,8.68-6.82,7.68,0,8.76,4.46,8.76,8.22v5.98c0,.98.26,1.48,1.3,1.48.34,0,.7-.02,1.08-.08Zm-7.62-1.22v-2.14c-.96-.18-1.88-.26-2.9-.26-2.86,0-4.18.7-4.18,2.18s.98,2.2,2.76,2.2,3.46-.74,4.32-1.98Z" fill="#4c4451" stroke-width="0"/><path d="m688.04,147.05v12.6h-5.36v-11.1c0-2.7-.98-3.96-3.22-3.96-2.56,0-4.3,1.82-4.3,5.58v9.48h-5.36v-19.7h4.76l.04,3.9c.98-2.68,3.08-4.28,6.38-4.28,4.98,0,7.06,3.02,7.06,7.48Z" fill="#4c4451" stroke-width="0"/><path d="m710.9,151.27h-13.56c.42,2.86,1.98,4.36,4.5,4.36s3.78-.9,4.28-2.7l4.52.7c-.9,4.24-4.22,6.4-8.78,6.4-6.22,0-9.84-4.24-9.84-10.22s3.76-10.24,9.68-10.24,9.3,3.88,9.3,9.94c0,.54-.02,1.08-.1,1.76Zm-13.52-3.38h8.34c-.22-2.66-1.78-3.98-4.02-3.98s-3.86,1.38-4.32,3.98Z" fill="#4c4451" stroke-width="0"/><path d="m715.14,159.66v-27.93h5.36v27.93h-5.36Z" fill="#4c4451" stroke-width="0"/></svg>