<?xml version="1.0" encoding="UTF-8"?><svg id="a" xmlns="http://www.w3.org/2000/svg" viewBox="0 0 740 200"><path d="m124.25,61.44v-.02s58.07,38.58,58.07,38.58l-58.09,38.58v-.02c.41-.25.8-.52,1.18-.82,9.78-7.74,24.05-21.71,24.05-37.72,0,0,0-.02,0-.02s0-.02,0-.02c0-16.01-14.27-29.98-24.05-37.72-.38-.3-.77-.56-1.16-.82Zm-47.49,0v-.02s-58.07,38.58-58.07,38.58l58.09,38.58v-.02c-.41-.25-.8-.52-1.18-.82-9.78-7.74-24.05-21.71-24.05-37.72,0,0,0-.02,0-.02s0-.02,0-.02c0-16.01,14.27-29.98,24.05-37.72.38-.3.77-.56,1.16-.82Zm46.24,38.56c0,4.36-1.25,8.42-3.41,11.84-.03.05-.06.1-.09.15-.01.02-.02.03-.03.05-3.96,6.13-10.86,10.17-18.72,10.17h-.72c-7.92-.27-14.79-4.65-18.51-11.09h.04c-1.97-3.35-2.99-7.23-3-11.12,0-3.89,1.03-7.77,3-11.12h-.04c3.72-6.44,10.59-10.82,18.51-11.09h.72c7.86,0,14.76,4.04,18.72,10.17.01.02.02.03.03.05.03.05.06.1.09.15,2.15,3.43,3.4,7.49,3.41,11.84Zm-11.15,0s0-.01,0-.02c0-6.12-4.92-11.09-11.03-11.09s-11.09,4.98-11.09,11.09c0,0,0,.01,0,.02s0,.01,0,.02c0,6.12,4.98,11.09,11.09,11.09s11.03-4.98,11.03-11.09c0,0,0-.01,0-.02Zm-48.81-9.83c7.74-9.78,21.71-24.05,37.72-24.05,0,0,.02,0,.02,0s.01,0,.02,0c16.01,0,29.98,14.27,37.72,24.05.3.38.56.77.82,1.16h.02s-38.58-58.07-38.58-58.07l-38.58,58.09h.02c.25-.41.52-.8.82-1.18Zm-.82,18.5h-.02s38.58,58.07,38.58,58.07l38.58-58.09h-.02c-.25.41-.52.8-.82,1.18-7.74,9.78-21.71,24.05-37.72,24.05,0,0-.02,0-.02,0s-.02,0-.02,0c-16.01,0-29.98-14.27-37.72-24.05-.3-.38-.56-.77-.82-1.16Z" fill="#fff" stroke-width="0"/><path d="m245.11,124.33l-3.47-11.29h-20.93l-3.47,11.29h-13.57l18.18-54.97h18.65l18.22,54.97h-13.61Zm-21.65-20.25h15.43l-7.7-25.28-7.74,25.28Z" fill="#fff" stroke-width="0"/><path d="m293.06,65.3h11.33v59.03h-9.73l-.51-7.95c-2.28,5.58-6.64,8.75-13.53,8.75-11.16,0-18.52-8.58-18.52-21.69s7.36-21.56,18.52-21.56c5.96,0,9.98,2.2,12.43,6.34v-22.92Zm.34,38.14c0-6.89-4.14-11.42-10.27-11.42s-9.64,4.4-9.64,11.42,3.51,11.67,9.64,11.67,10.27-4.69,10.27-11.67Z" fill="#fff" stroke-width="0"/><path d="m352.38,97.69v26.64h-11.33v-23.47c0-5.71-2.07-8.37-6.81-8.37-5.41,0-9.09,3.85-9.09,11.8v20.04h-11.33v-59.03h11.33v24.1c2.28-4.74,6.43-7.53,12.64-7.53,10.19,0,14.59,6.38,14.59,15.81Z" fill="#fff" stroke-width="0"/><path d="m387.89,82.68h12.81l-13.95,42.71c-4.65,14.63-16.28,17.25-28.79,14.16l1.95-9.73c9.26,2.37,14,1.01,15.81-4.44l.34-1.06h-4.86l-13.62-41.65h12.81l6.55,24.86c.76,2.88,1.52,5.96,2.24,8.84.68-2.75,1.4-5.67,2.2-8.75l6.51-24.95Z" fill="#fff" stroke-width="0"/><path d="m445.9,114.86v9.22c-1.86.47-3.55.59-5.67.59-6.22,0-8.58-1.78-9.22-6.64-2.28,4.52-7.31,7.06-14.21,7.06-9.09,0-14.21-5.41-14.21-12.85,0-8.79,8.03-12.05,19.49-12.05,2.75,0,5.29.21,7.7.59v-1.65c0-4.65-1.69-8.03-7.4-8.03-4.61,0-7.02,2.07-7.53,6.47l-10.87-1.27c.68-9.43,7.91-14.42,18.35-14.42,16.24,0,18.52,9.43,18.52,17.38v12.64c0,2.07.55,3.13,2.75,3.13.72,0,1.48-.04,2.28-.17Zm-16.11-2.58v-4.52c-2.03-.38-3.97-.55-6.13-.55-6.05,0-8.84,1.48-8.84,4.61s2.07,4.65,5.83,4.65,7.31-1.56,9.13-4.19Z" fill="#fff" stroke-width="0"/><path d="m476.51,82.68h12.81l-13.95,42.71c-4.65,14.63-16.28,17.25-28.79,14.16l1.95-9.73c9.26,2.37,14,1.01,15.81-4.44l.34-1.06h-4.86l-13.62-41.65h12.81l6.55,24.86c.76,2.88,1.52,5.96,2.24,8.84.68-2.75,1.4-5.67,2.2-8.75l6.51-24.95Z" fill="#fff" stroke-width="0"/><path d="m534.52,114.86v9.22c-1.86.47-3.55.59-5.67.59-6.21,0-8.58-1.78-9.22-6.64-2.28,4.52-7.31,7.06-14.21,7.06-9.09,0-14.21-5.41-14.21-12.85,0-8.79,8.03-12.05,19.49-12.05,2.75,0,5.29.21,7.7.59v-1.65c0-4.65-1.69-8.03-7.4-8.03-4.61,0-7.02,2.07-7.53,6.47l-10.87-1.27c.68-9.43,7.91-14.42,18.35-14.42,16.24,0,18.52,9.43,18.52,17.38v12.64c0,2.07.55,3.13,2.75,3.13.72,0,1.48-.04,2.28-.17Zm-16.11-2.58v-4.52c-2.03-.38-3.97-.55-6.13-.55-6.05,0-8.84,1.48-8.84,4.61s2.07,4.65,5.83,4.65,7.31-1.56,9.13-4.19Z" fill="#fff" stroke-width="0"/><path d="m578.87,97.69v26.64h-11.33v-23.47c0-5.71-2.07-8.37-6.81-8.37-5.41,0-9.09,3.85-9.09,11.8v20.04h-11.33v-41.65h10.06l.08,8.25c2.07-5.67,6.51-9.05,13.49-9.05,10.53,0,14.93,6.38,14.93,15.81Z" fill="#fff" stroke-width="0"/><path d="m629.02,114.86v9.22c-1.86.47-3.55.59-5.67.59-6.21,0-8.58-1.78-9.22-6.64-2.28,4.52-7.31,7.06-14.21,7.06-9.09,0-14.21-5.41-14.21-12.85,0-8.79,8.03-12.05,19.49-12.05,2.75,0,5.29.21,7.7.59v-1.65c0-4.65-1.69-8.03-7.4-8.03-4.61,0-7.02,2.07-7.53,6.47l-10.87-1.27c.68-9.43,7.91-14.42,18.35-14.42,16.24,0,18.52,9.43,18.52,17.38v12.64c0,2.07.55,3.13,2.75,3.13.72,0,1.48-.04,2.28-.17Zm-16.11-2.58v-4.52c-2.03-.38-3.97-.55-6.13-.55-6.05,0-8.84,1.48-8.84,4.61s2.07,4.65,5.83,4.65,7.31-1.56,9.13-4.19Z" fill="#fff" stroke-width="0"/><path d="m688.3,124.33l-3.47-11.29h-20.93l-3.47,11.29h-13.57l18.18-54.97h18.65l18.22,54.97h-13.62Zm-21.65-20.25h15.43l-7.7-25.28-7.74,25.28Z" fill="#fff" stroke-width="0"/><path d="m708.97,124.33v-54.97h12.35v54.97h-12.35Z" fill="#fff" stroke-width="0"/></svg>