<?xml version="1.0" encoding="UTF-8"?><svg id="a" xmlns="http://www.w3.org/2000/svg" xmlns:xlink="http://www.w3.org/1999/xlink" viewBox="0 0 200 160"><defs><linearGradient id="b" x1="68.73" y1="17.97" x2="128.51" y2="136.55" gradientUnits="userSpaceOnUse"><stop offset="0" stop-color="#ffc688"/><stop offset=".52" stop-color="#ff3e96"/><stop offset="1" stop-color="#93f"/></linearGradient></defs><path d="m123.75,41.44v-.02s58.07,38.58,58.07,38.58l-58.09,38.58v-.02c.41-.25.8-.52,1.18-.82,9.78-7.74,24.05-21.71,24.05-37.72,0,0,0-.02,0-.02s0-.02,0-.02c0-16.01-14.27-29.98-24.05-37.72-.38-.3-.77-.56-1.16-.82Zm-47.49,0v-.02s-58.07,38.58-58.07,38.58l58.09,38.58v-.02c-.41-.25-.8-.52-1.18-.82-9.78-7.74-24.05-21.71-24.05-37.72,0,0,0-.02,0-.02s0-.02,0-.02c0-16.01,14.27-29.98,24.05-37.72.38-.3.77-.56,1.16-.82Zm46.24,38.56c0,4.36-1.25,8.42-3.41,11.84-.03.05-.06.1-.09.15-.01.02-.02.03-.03.05-3.96,6.13-10.86,10.17-18.72,10.17h-.72c-7.92-.27-14.79-4.65-18.51-11.09h.04c-1.97-3.35-2.99-7.23-3-11.12,0-3.89,1.03-7.77,3-11.12h-.04c3.72-6.44,10.59-10.82,18.51-11.09h.72c7.86,0,14.76,4.04,18.72,10.17.01.02.02.03.03.05.03.05.06.1.09.15,2.15,3.43,3.4,7.49,3.41,11.84Zm-11.15,0s0-.01,0-.02c0-6.12-4.92-11.09-11.03-11.09s-11.09,4.98-11.09,11.09c0,0,0,.01,0,.02s0,.01,0,.02c0,6.12,4.98,11.09,11.09,11.09s11.03-4.98,11.03-11.09c0,0,0-.01,0-.02Zm-48.81-9.83c7.74-9.78,21.71-24.05,37.72-24.05,0,0,.02,0,.02,0s.01,0,.02,0c16.01,0,29.98,14.27,37.72,24.05.3.38.56.77.82,1.16h.02S100.28,13.26,100.28,13.26l-38.58,58.09h.02c.25-.41.52-.8.82-1.18Zm-.82,18.5h-.02s38.58,58.07,38.58,58.07l38.58-58.09h-.02c-.25.41-.52.8-.82,1.18-7.74,9.78-21.71,24.05-37.72,24.05,0,0-.02,0-.02,0s-.02,0-.02,0c-16.01,0-29.98-14.27-37.72-24.05-.3-.38-.56-.77-.82-1.16Z" fill="url(#b)" stroke-width="0"/></svg>